<svg width="21" height="21" viewBox="0 0 21 21" fill="none" xmlns="http://www.w3.org/2000/svg">
<path d="M10.5 0.0834961C7.82955 0.091113 5.26403 1.12403 3.33331 2.96891V1.12516C3.33331 0.848896 3.22357 0.583944 3.02822 0.388593C2.83287 0.193243 2.56791 0.0834961 2.29165 0.0834961C2.01538 0.0834961 1.75043 0.193243 1.55508 0.388593C1.35973 0.583944 1.24998 0.848896 1.24998 1.12516V5.81266C1.24998 6.08893 1.35973 6.35388 1.55508 6.54923C1.75043 6.74458 2.01538 6.85433 2.29165 6.85433H6.97915C7.25541 6.85433 7.52036 6.74458 7.71572 6.54923C7.91107 6.35388 8.02081 6.08893 8.02081 5.81266C8.02081 5.5364 7.91107 5.27144 7.71572 5.07609C7.52036 4.88074 7.25541 4.771 6.97915 4.771H4.47915C5.8185 3.37137 7.60363 2.48209 9.52762 2.25607C11.4516 2.03004 13.3942 2.48139 15.0215 3.5325C16.6488 4.58361 17.859 6.16882 18.4441 8.01557C19.0292 9.86232 18.9526 11.8552 18.2275 13.6516C17.5024 15.448 16.1741 16.9357 14.471 17.8588C12.7679 18.782 10.7963 19.0829 8.89535 18.7099C6.99438 18.3369 5.28276 17.3132 4.05476 15.8149C2.82677 14.3167 2.15913 12.4374 2.16665 10.5002C2.16665 10.2239 2.0569 9.95894 1.86155 9.76359C1.6662 9.56824 1.40125 9.4585 1.12498 9.4585C0.848712 9.4585 0.58376 9.56824 0.38841 9.76359C0.19306 9.95894 0.083313 10.2239 0.083313 10.5002C0.083313 12.5604 0.69424 14.5743 1.83884 16.2874C2.98344 18.0004 4.6103 19.3355 6.51369 20.1239C8.41709 20.9123 10.5115 21.1186 12.5322 20.7167C14.5528 20.3147 16.4089 19.3227 17.8657 17.8659C19.3225 16.4091 20.3146 14.553 20.7165 12.5324C21.1184 10.5117 20.9121 8.41727 20.1237 6.51388C19.3353 4.61048 18.0002 2.98362 16.2872 1.83902C14.5742 0.694423 12.5602 0.0834961 10.5 0.0834961ZM10.5 6.3335C10.2237 6.3335 9.95876 6.44324 9.76341 6.63859C9.56806 6.83394 9.45831 7.0989 9.45831 7.37516V10.5002C9.45831 10.7764 9.56806 11.0414 9.76341 11.2367C9.95876 11.4321 10.2237 11.5418 10.5 11.5418H12.5833C12.8596 11.5418 13.1245 11.4321 13.3199 11.2367C13.5152 11.0414 13.625 10.7764 13.625 10.5002C13.625 10.2239 13.5152 9.95894 13.3199 9.76359C13.1245 9.56824 12.8596 9.4585 12.5833 9.4585H11.5416V7.37516C11.5416 7.0989 11.4319 6.83394 11.2365 6.63859C11.0412 6.44324 10.7762 6.3335 10.5 6.3335Z" fill="#909090"/>
</svg>
