<svg width="21" height="21" viewBox="0 0 21 21" fill="none" xmlns="http://www.w3.org/2000/svg">
<path fill-rule="evenodd" clip-rule="evenodd" d="M9.6786 0.742489C9.96552 0.499237 10.3295 0.365723 10.7056 0.365723C11.0818 0.365723 11.4458 0.499237 11.7327 0.742489L19.6737 7.47967C19.8496 7.62874 19.9908 7.81431 20.0877 8.02348C20.1847 8.23265 20.2349 8.46041 20.2349 8.69094V18.6469C20.2349 19.0681 20.0676 19.4721 19.7697 19.7699C19.4719 20.0678 19.0679 20.2351 18.6467 20.2351H12.5585C12.3479 20.2351 12.146 20.1514 11.997 20.0025C11.8481 19.8536 11.7644 19.6516 11.7644 19.441V12.8235H9.64683V19.441C9.64683 19.6516 9.56317 19.8536 9.41425 20.0025C9.26532 20.1514 9.06334 20.2351 8.85273 20.2351H2.7646C2.34338 20.2351 1.93941 20.0678 1.64157 19.7699C1.34372 19.4721 1.17639 19.0681 1.17639 18.6469V8.69094C1.17639 8.22507 1.3818 7.78143 1.73756 7.47967L9.6786 0.742489ZM10.7056 1.95376L2.7646 8.69094V18.6469H8.05863V12.0294C8.05863 11.8187 8.14229 11.6168 8.29121 11.4678C8.44014 11.3189 8.64212 11.2352 8.85273 11.2352H12.5585C12.7692 11.2352 12.9711 11.3189 13.1201 11.4678C13.269 11.6168 13.3527 11.8187 13.3527 12.0294V18.6469H18.6467V8.69094L10.7056 1.95376Z" fill="#909090" stroke="#909090" stroke-width="0.5"/>
</svg>
