<svg width="23" height="23" viewBox="0 0 23 23" fill="none" xmlns="http://www.w3.org/2000/svg">
<g clip-path="url(#clip0_1152_4728)">
<path d="M17.3802 10.5377C17.9376 15.6873 20.1261 17.2435 20.1261 17.2435H2.88269C2.88269 17.2435 5.75659 15.1999 5.75659 8.047C5.75659 6.42096 6.36216 4.86152 7.44008 3.71174C8.51801 2.56195 9.97998 1.91602 11.5044 1.91602C11.8275 1.91602 12.1479 1.94504 12.4624 2.00174" stroke="#909090" stroke-width="2" stroke-linecap="round" stroke-linejoin="round"/>
<path d="M18.2102 7.66382C19.7975 7.66382 21.0841 6.37712 21.0841 4.78992C21.0841 3.20271 19.7975 1.91602 18.2102 1.91602C16.6229 1.91602 15.3363 3.20271 15.3363 4.78992C15.3363 6.37712 16.6229 7.66382 18.2102 7.66382Z" stroke="#909090" stroke-width="2" stroke-linecap="round" stroke-linejoin="round"/>
<path d="M13.1617 20.1172C12.9933 20.4075 12.7516 20.6486 12.4607 20.816C12.1699 20.9836 11.8401 21.0718 11.5044 21.0718C11.1688 21.0718 10.839 20.9836 10.5482 20.816C10.2574 20.6486 10.0156 20.4075 9.84717 20.1172" stroke="#909090" stroke-width="2" stroke-linecap="round" stroke-linejoin="round"/>
</g>
<defs>
<clipPath id="clip0_1152_4728">
<rect width="22.9912" height="22.9912" fill="white" transform="translate(0.00878906)"/>
</clipPath>
</defs>
</svg>
