<?xml version="1.0" ?><svg width="200px" height="200px" viewBox="0 0 200 200" data-name="Layer 1" id="Layer_1" xmlns="http://www.w3.org/2000/svg"><title/><path d="M174,66c3.5-2.5,6-6,6-10V35a10,10,0,0,0-10-10H50A30.09,30.09,0,0,0,20,55v90a30.09,30.09,0,0,0,30,30H170a10,10,0,0,0,10-10V144.5a12,12,0,0,0-6-10c-6.5-5-16.5-15-16.5-34s10-30,16.5-34.5ZM160,51.5c-10,8-22.5,23.5-22.5,48.5S150,140.5,160,148.5V155H50a10,10,0,0,1-10-10V55A10,10,0,0,1,50,45H160ZM70,130a10,10,0,0,0,10-10V80a10,10,0,0,0-20,0v40A10,10,0,0,0,70,130Z"/></svg>