<svg width="22" height="21" viewBox="0 0 22 21" fill="none" xmlns="http://www.w3.org/2000/svg">
<path d="M18.657 4.20605H3.32951C2.27137 4.20605 1.41357 5.06385 1.41357 6.12199V17.6176C1.41357 18.6757 2.27137 19.5335 3.32951 19.5335H18.657C19.7151 19.5335 20.5729 18.6757 20.5729 17.6176V6.12199C20.5729 5.06385 19.7151 4.20605 18.657 4.20605Z" stroke="#909090" stroke-width="2" stroke-linecap="round" stroke-linejoin="round"/>
<path d="M16.7413 4.20643V2.92275C16.7423 2.62558 16.6743 2.33223 16.5424 2.06591C16.4106 1.79958 16.2186 1.56758 15.9816 1.38823C15.7447 1.20889 15.4692 1.08713 15.1771 1.03257C14.885 0.978008 14.5842 0.992149 14.2985 1.07387L2.25684 4.53213" stroke="#909090" stroke-width="2" stroke-linecap="round" stroke-linejoin="round"/>
<path d="M20.573 9.60938H16.9136C16.3597 9.60938 15.8285 9.8294 15.4369 10.221C15.0452 10.6127 14.8252 11.1439 14.8252 11.6977C14.8277 12.2508 15.0485 12.7806 15.4396 13.1717C15.8307 13.5628 16.3605 13.7836 16.9136 13.7861H20.573" stroke="#909090" stroke-width="2" stroke-linecap="round" stroke-linejoin="round"/>
</svg>
