<svg width="22" height="21" viewBox="0 0 22 21" fill="none" xmlns="http://www.w3.org/2000/svg">
<path d="M18.6571 4.2063H3.32963C2.27149 4.2063 1.4137 5.06409 1.4137 6.12223V17.6178C1.4137 18.676 2.27149 19.5338 3.32963 19.5338H18.6571C19.7152 19.5338 20.573 18.676 20.573 17.6178V6.12223C20.573 5.06409 19.7152 4.2063 18.6571 4.2063Z" stroke="#909090" stroke-width="2" stroke-linecap="round" stroke-linejoin="round"/>
<path d="M16.7412 4.20643V2.92275C16.7422 2.62558 16.6741 2.33223 16.5423 2.06591C16.4105 1.79958 16.2185 1.56758 15.9815 1.38823C15.7445 1.20889 15.4691 1.08713 15.177 1.03257C14.8849 0.978008 14.5841 0.992149 14.2984 1.07387L2.25671 4.53213" stroke="#909090" stroke-width="2" stroke-linecap="round" stroke-linejoin="round"/>
<path d="M20.573 9.60913H16.9136C16.3597 9.60913 15.8285 9.82915 15.4369 10.2208C15.0452 10.6124 14.8252 11.1436 14.8252 11.6975C14.8277 12.2506 15.0485 12.7803 15.4396 13.1714C15.8307 13.5625 16.3605 13.7833 16.9136 13.7859H20.573" stroke="#909090" stroke-width="2" stroke-linecap="round" stroke-linejoin="round"/>
</svg>
